<svg width="900" height="157" viewBox="0 0 900 157" fill="none" xmlns="http://www.w3.org/2000/svg">
<path d="M103.259 113.52C97.7593 139.48 78.8393 156.64 52.6593 156.64C21.4193 156.64 0.959298 132.66 0.959298 97.24C0.959298 61.82 21.4193 37.84 52.6593 37.84C79.4993 37.84 98.4193 55.44 103.259 82.72H83.8993C81.6993 65.34 66.9593 54.12 52.6593 54.12C33.7393 54.12 19.8793 71.72 19.8793 97.24C19.8793 122.76 33.7393 140.36 52.6593 140.36C66.2993 140.36 81.2593 130.02 83.8993 113.52H103.259ZM125.682 -1.04904e-05H144.602V53.68C152.082 43.78 164.182 37.84 178.042 37.84C196.522 37.84 217.202 51.48 217.202 79.86V154H198.282V79.86C198.282 65.56 190.362 53.24 171.442 53.24C155.602 53.24 144.602 62.26 144.602 79.86V154H125.682V-1.04904e-05ZM310.915 68.86C310.915 59.18 300.795 54.12 287.595 54.12C275.935 54.12 266.035 60.94 266.035 68.86H247.115C247.115 51.92 265.595 37.84 287.595 37.84C307.835 37.84 329.835 46.86 329.835 68.86V154H310.915V138.16C304.975 149.82 293.535 156.64 280.115 156.64C251.955 156.64 239.635 139.48 239.635 121.22C239.635 98.12 258.555 86.02 282.315 86.02H287.595C302.995 86.02 310.915 80.08 310.915 68.86ZM258.555 121.22C258.555 132.88 267.135 140.36 282.315 140.36C297.935 140.36 310.915 130.46 310.915 119.02V93.94C305.415 99 297.715 101.42 287.595 101.42H282.315C267.135 101.42 258.555 109.34 258.555 121.22ZM355.78 40.48H374.7V54.78C382.18 44.44 394.28 37.84 408.14 37.84C426.62 37.84 447.3 51.48 447.3 79.86V154H428.38V79.86C428.38 65.56 420.46 53.24 401.54 53.24C385.7 53.24 374.7 62.26 374.7 79.86V154H355.78V40.48ZM473.084 154V40.48H492.004V154H473.084ZM469.564 11.88C469.564 5.05999 475.284 -1.04904e-05 482.544 -1.04904e-05C489.584 -1.04904e-05 495.304 5.05999 495.304 11.88C495.304 18.48 489.584 23.54 482.544 23.54C475.284 23.54 469.564 18.48 469.564 11.88ZM517.987 40.48H536.907V56.76C542.407 45.32 551.427 37.84 562.207 37.84C566.827 37.84 571.447 38.72 576.067 40.48V58.3C576.067 58.3 570.787 55.66 561.107 55.66C543.727 55.66 536.907 69.08 536.907 82.5V154H517.987V40.48ZM685.311 154H666.391V139.7C658.911 150.04 646.811 156.64 632.951 156.64C614.471 156.64 593.791 143 593.791 114.62V40.48H612.711V114.62C612.711 128.92 620.631 141.24 639.551 141.24C655.391 141.24 666.391 132.22 666.391 114.62V40.48H685.311V154ZM722.494 154C715.454 154 709.954 148.72 709.954 142.56C709.954 136.18 715.454 130.9 722.494 130.9C729.314 130.9 734.814 136.18 734.814 142.56C734.814 148.72 729.314 154 722.494 154ZM759.686 154V-1.04904e-05H778.606V154H759.686ZM804.588 -1.04904e-05H823.508V93.72L873.008 40.48H896.988L848.588 89.98L899.628 154H878.288C878.288 154 843.308 110.22 836.928 102.08L823.728 115.5L823.508 115.72V154H804.588V-1.04904e-05Z" fill="#FAF9F6"/>
</svg>
